<svg xmlns="http://www.w3.org/2000/svg" xmlns:xlink="http://www.w3.org/1999/xlink" aria-hidden="true" role="img" class="iconify iconify--logos" width="32" height="32" preserveAspectRatio="xMidYMid meet" viewBox="0 0 256 228"><path fill="#00D8FF" d="M210.681 92.67c5.216 28.328-15.632 55.485-46.561 60.655c-3.151.527-6.314.887-9.458 1.103c8.895 4.481 18.232 8.355 27.709 11.455c27.141 8.877 56.634 8.799 70.364-7.027c15.176-17.493 8.528-56.126-19.504-86.43c-6.262-6.769-13.256-13.056-20.73-18.773c2.977 12.353 3.413 25.795-1.82 39.017Zm-86.222-7.513c-15.998 0-29.083 12.87-29.083 28.607s13.085 28.608 29.083 28.608s29.084-12.87 29.084-28.608s-13.086-28.607-29.084-28.607Zm52.029 80.844c-11.428-21.751-40.354-32.997-64.604-25.12c-5.766 1.874-11.233 4.606-16.29 8.04c.896 9.948 3.541 19.982 8.257 29.027c13.504 25.897 43.141 39.092 63.856 31.066c22.9-8.875 29.98-46.207 15.823-86.444c-1.745-4.962-3.834-9.842-6.241-14.619c-3.791 19.955-4.57 40.523-.8 61.27c0 .001-.001-.002-.001-.003v-.006c0 0 .001.002.001.003c0-.001 0-.001 0 0Zm-95.213-9.529c2.316-12.607 9.47-23.778 19.896-30.824c-22.376 4.671-33.882 18.067-33.882 31.902c0 10.957 7.206 20.252 20.306 25.101a93.21 93.21 0 0 1-6.32-26.179Zm64.128-44.57c-2.695 12.528-10.274 23.578-20.916 30.553c22.378-4.671 33.883-18.065 33.883-31.9c0-10.959-7.208-20.255-20.309-25.104a93.303 93.303 0 0 1 7.342 26.451Zm-93.566 21.037c15.176 17.493 42.106 28.537 66.459 28.537c3.96 0 7.848-.291 11.637-.801c-8.895-4.482-18.232-8.354-27.708-11.455c-27.14-8.877-56.634-8.799-70.363 7.027c-9.619 11.088-9.453 29.132 1.055 51.53c5.441-10.038 9.07-21.285 10.158-33.585c-6.877-12.353-8.852-26.331-5.188-40.09l13.95 2.155v-3.318Zm18.91 3.328c11.428 21.751 40.354 32.997 64.605 25.12c5.766-1.874 11.232-4.606 16.29-8.04c-.896-9.948-3.541-19.981-8.257-29.027c-13.504-25.897-43.14-39.092-63.856-31.066c-22.9 8.875-29.98 46.207-15.823 86.444c1.745 4.961 3.834 9.841 6.241 14.619c3.791-19.955 4.569-40.523.8-61.27c0-.001 0 .002 0 .003v.006l.001-.003c-.001.001-.001.001-.001 0Zm120.449-3.328c.18 5.762-1.745 15.65-6.503 27.674c6.262 6.768 13.256 13.056 20.73 18.772c-2.977-12.352-3.413-25.794 1.82-39.016c-5.215-28.329 15.633-55.485 46.561-60.655c3.151-.527 6.314-.886 9.458-1.103c-8.895-4.482-18.232-8.355-27.709-11.455c-27.14-8.877-56.634-8.799-70.363 7.027c-11.956 13.784-9.352 40.732 6.006 63.882v-3.308l-.001-1.819Z"></path></svg>
